<svg width="432px" height="518px" viewBox="0 0 432 518" version="1.1" xmlns="http://www.w3.org/2000/svg" xmlns:xlink="http://www.w3.org/1999/xlink">
    <defs>
        <polygon id="path-1" points="0 596 431.168 596 431.168 0.321 0 0.321"></polygon>
        <polygon id="path-3" points="0.995 0.265 97.2565 0.265 97.2565 79.2866 0.995 79.2866"></polygon>
        <polygon id="path-5" points="0.995 0.265 100.478 0.265 100.478 82.5078 0.995 82.5078"></polygon>
        <polygon id="path-7" points="0.683 0.0871169721 9.61128338 0.0871169721 9.61128338 29.8763 0.683 29.8763"></polygon>
    </defs>
    <g id="-" stroke="none" stroke-width="1" fill="none" fill-rule="evenodd">
        <g id="Therapist-Landing-Page" transform="translate(-791.000000, -136.000000)">
            <g id="Page" transform="translate(-439.000000, 0.000000)">
                <g id="Top-area" transform="translate(438.000000, 0.000000)">
                    <g id="Image">
                        <g id="Therapist-lady-illustration" transform="translate(791.000000, 57.000000)">
                            <g id="Therapist-lady-illustration-2" transform="translate(1.000000, 0.000000)">
                                <polygon id="Fill-1" fill="#FFFFFF" points="119.5261 276.1243 87.1641 380.4043 152.9261 380.4043"></polygon>
                                <g id="Group-11" transform="translate(0.000000, 0.679000)">
                                    <path d="M91.5368,376.5039 L148.5118,376.5039 L119.5748,286.1589 L91.5368,376.5039 Z M152.9268,382.9469 L87.1638,382.9469 C86.1408,382.9469 85.1778,382.4609 84.5698,381.6369 C83.9628,380.8129 83.7828,379.7479 84.0868,378.7709 L116.4488,274.4899 C116.8658,273.1479 118.1048,272.2299 119.5118,272.2239 L119.5258,272.2239 C120.9268,272.2239 122.1668,273.1279 122.5948,274.4629 L155.9948,378.7429 C156.3088,379.7229 156.1358,380.7939 155.5288,381.6249 C154.9228,382.4559 153.9558,382.9469 152.9268,382.9469 L152.9268,382.9469 Z" id="Fill-2" fill="#373736"></path>
                                    <path d="M135.7936,378.6357 L108.5116,322.9317" id="Fill-4" fill="#FFFFFF"></path>
                                    <path d="M135.7956,381.8584 C134.6046,381.8584 133.4596,381.1954 132.8996,380.0524 L105.6176,324.3484 C104.8346,322.7514 105.4956,320.8204 107.0946,320.0384 C108.6906,319.2544 110.6216,319.9154 111.4046,321.5144 L138.6876,377.2184 C139.4706,378.8164 138.8096,380.7474 137.2106,381.5294 C136.7546,381.7534 136.2726,381.8584 135.7956,381.8584" id="Fill-6" fill="#373736"></path>
                                    <mask id="mask-2" fill="white">
                                        <use xlink:href="#path-1"></use>
                                    </mask>
                                    <g id="Clip-9"></g>
                                    <polygon id="Fill-8" fill="#FFFFFF" mask="url(#mask-2)" points="200.995 278.551 397.281 278.551 397.281 82.265 200.995 82.265"></polygon>
                                    <path d="M204.216,275.329 L394.059,275.329 L394.059,85.486 L204.216,85.486 L204.216,275.329 Z M197.774,281.772 L400.503,281.772 L400.503,79.043 L197.774,79.043 L197.774,281.772 Z" id="Fill-10" fill="#373736" mask="url(#mask-2)"></path>
                                </g>
                                <g id="Group-103" transform="translate(200.000000, 82.679000)">
                                    <g id="Group-14">
                                        <mask id="mask-4" fill="white">
                                            <use xlink:href="#path-3"></use>
                                        </mask>
                                        <g id="Clip-13"></g>
                                        <path d="M-18.4505,21.4336 C-18.4505,-10.5184 7.4505,-36.4204 39.4035,-36.4204 C71.3545,-36.4204 97.2565,-10.5184 97.2565,21.4336 C97.2565,53.3846 71.3545,79.2866 39.4035,79.2866 C7.4505,79.2866 -18.4505,53.3846 -18.4505,21.4336" id="Fill-12" fill="#FFDA6F" mask="url(#mask-4)"></path>
                                    </g>
                                    <g id="Group-17">
                                        <mask id="mask-6" fill="white">
                                            <use xlink:href="#path-5"></use>
                                        </mask>
                                        <g id="Clip-16"></g>
                                        <path d="M39.403,-33.1982 C9.279,-33.1982 -15.229,-8.6902 -15.229,21.4338 C-15.229,51.5568 9.279,76.0648 39.403,76.0648 C69.527,76.0648 94.035,51.5568 94.035,21.4338 C94.035,-8.6902 69.527,-33.1982 39.403,-33.1982 M39.403,82.5078 C5.726,82.5078 -21.672,55.1108 -21.672,21.4338 C-21.672,-12.2432 5.726,-39.6412 39.403,-39.6412 C73.08,-39.6412 100.478,-12.2432 100.478,21.4338 C100.478,55.1108 73.08,82.5078 39.403,82.5078" id="Fill-15" fill="#373736" mask="url(#mask-6)"></path>
                                    </g>
                                </g>
                                <g id="Group-75-Copy" transform="translate(200.000000, 85.396000)">
                                    <path d="M141.4399,6.2354 C141.2349,4.5364 140.3799,3.0184 139.0339,1.9634 C137.6869,0.9084 136.0029,0.4464 134.3119,0.6464 L115.3059,2.9574 C113.6089,3.1654 112.0929,4.0204 111.0389,5.3664 C109.9829,6.7144 109.5159,8.3914 109.7229,10.0904 C110.1199,13.3344 112.8879,15.7194 116.0749,15.7194 C116.3319,15.7194 116.5919,15.7044 116.8539,15.6734 L135.8539,13.3624 C137.5549,13.1564 139.0719,12.2994 140.1279,10.9524 C141.1819,9.6054 141.6479,7.9264 141.4399,6.2354" id="Fill-18" fill="#FDF1CE"></path>
                                    <path d="M140.1401,26.3242 C139.0831,24.9782 137.5651,24.1252 135.8661,23.9212 L116.8601,21.6432 C113.3651,21.2182 110.1591,23.7292 109.7351,27.2392 C109.3151,30.7462 111.8261,33.9402 115.3311,34.3612 L134.3441,36.6402 C134.6021,36.6712 134.8601,36.6862 135.1161,36.6862 C136.5431,36.6862 137.9211,36.2132 139.0601,35.3172 C140.4071,34.2602 141.2601,32.7402 141.4611,31.0462 C141.6661,29.3462 141.1971,27.6692 140.1401,26.3242" id="Fill-20" fill="#FDF1CE"></path>
                                    <path d="M135.4067,50.2646 C134.7017,48.7066 133.4327,47.5166 131.8327,46.9116 L113.9177,40.1506 C110.6187,38.9076 106.9127,40.5776 105.6637,43.8826 C105.0597,45.4836 105.1147,47.2236 105.8197,48.7826 C106.5237,50.3416 107.7947,51.5336 109.3947,52.1356 L127.3127,58.8996 C128.0527,59.1776 128.8137,59.3096 129.5627,59.3096 C132.1527,59.3096 134.5967,57.7276 135.5607,55.1686 C136.1677,53.5666 136.1127,51.8256 135.4067,50.2646" id="Fill-22" fill="#FDF1CE"></path>
                                    <path d="M125.0532,72.417 C124.7442,70.734 123.7982,69.272 122.3892,68.301 L106.6282,57.429 C105.2172,56.456 103.5142,56.092 101.8342,56.399 C100.1512,56.708 98.6882,57.655 97.7182,59.063 C96.7472,60.471 96.3822,62.173 96.6902,63.855 C96.9982,65.538 97.9452,67 99.3532,67.972 L115.1152,78.845 C116.1972,79.592 117.4512,79.98 118.7392,79.98 C119.1272,79.98 119.5202,79.945 119.9102,79.873 C121.5922,79.563 123.0532,78.618 124.0272,77.208 C124.9962,75.799 125.3612,74.098 125.0532,72.417" id="Fill-24" fill="#FDF1CE"></path>
                                    <path d="M108.1137,86.75 L95.3887,72.447 C94.2527,71.168 92.6847,70.408 90.9777,70.308 C89.2757,70.204 87.6257,70.778 86.3427,71.917 C83.7047,74.267 83.4687,78.323 85.8167,80.959 L98.5407,95.261 C99.6777,96.541 101.2457,97.301 102.9547,97.4 C103.0827,97.408 103.2097,97.411 103.3367,97.411 C104.9067,97.411 106.4027,96.843 107.5857,95.79 C110.2207,93.443 110.4577,89.388 108.1137,86.75" id="Fill-26" fill="#FDF1CE"></path>
                                    <path d="M89.8696,101.292 L80.9316,84.359 C79.2846,81.237 75.4016,80.036 72.2746,81.683 C70.7626,82.481 69.6506,83.821 69.1456,85.455 C68.6406,87.091 68.8026,88.824 69.6006,90.337 L78.5396,107.271 C79.3386,108.784 80.6786,109.896 82.3116,110.4 C82.9356,110.593 83.5746,110.688 84.2106,110.688 C85.2386,110.688 86.2576,110.438 87.1906,109.945 C90.3146,108.299 91.5156,104.417 89.8696,101.292" id="Fill-28" fill="#FDF1CE"></path>
                                    <path d="M68.5932,111.0527 L63.9962,92.4637 C63.1502,89.0367 59.6692,86.9347 56.2412,87.7827 C54.5792,88.1937 53.1782,89.2277 52.2942,90.6927 C51.4112,92.1567 51.1512,93.8777 51.5622,95.5387 L56.1572,114.1267 C56.8772,117.0407 59.4992,118.9947 62.3782,118.9947 C62.8852,118.9947 63.4012,118.9347 63.9142,118.8077 C67.3412,117.9577 69.4412,114.4797 68.5932,111.0527" id="Fill-30" fill="#FDF1CE"></path>
                                    <path d="M45.6694,96.2588 C45.6654,94.5478 44.9964,92.9408 43.7834,91.7348 C42.5744,90.5308 40.9714,89.8698 39.2664,89.8698 L39.2514,89.8698 C37.5404,89.8738 35.9344,90.5428 34.7274,91.7548 C33.5194,92.9688 32.8564,94.5788 32.8613719,96.2888 L32.9064,115.4318 C32.9144,118.9568 35.7854,121.8208 39.3104,121.8208 L39.3244,121.8208 C41.0354,121.8168 42.6424,121.1478 43.8494,119.9358 C45.0564,118.7228 45.7194,117.1128 45.7144281,115.4018 L45.6694,96.2588 Z" id="Fill-32" fill="#FDF1CE"></path>
                                    <path d="M26.1567,90.7422 C25.2667,89.2792 23.8607,88.2512 22.1977,87.8462 C20.5367,87.4432 18.8147,87.7092 17.3527,88.5982 C15.8917,89.4882 14.8637,90.8932 14.4597,92.5562 L9.9327,111.1642 C9.5287,112.8282 9.7957,114.5492 10.6857,116.0102 C11.5757,117.4712 12.9827,118.4992 14.6427,118.9012 C15.1497,119.0242 15.6617,119.0852 16.1707,119.0852 C17.3307,119.0852 18.4717,118.7672 19.4877,118.1492 C20.9487,117.2602 21.9767,115.8542 22.3817,114.1922 L26.9057,95.5882 C27.3117,93.9252 27.0467,92.2042 26.1567,90.7422" id="Fill-34" fill="#FDF1CE"></path>
                                    <g id="Group-38" transform="translate(0.000000, 81.000000)">
                                        <mask id="mask-8" fill="white">
                                            <use xlink:href="#path-7"></use>
                                        </mask>
                                        <g id="Clip-37"></g>
                                        <path d="M6.1723,0.8203 C4.6553,0.0253 2.9203,-0.1287 1.2883,0.3853 C-0.3427,0.8973 -1.6777,2.0143 -2.4707,3.5313 L-11.3307,20.5033 C-12.9667,23.6323 -11.7507,27.5083 -8.6187,29.1463 C-7.6897,29.6313 -6.6797,29.8763 -5.6617,29.8763 C-5.0157,29.8763 -4.3677,29.7783 -3.7347,29.5793 C-2.1027,29.0663 -0.7677,27.9493 0.0233,26.4323 L8.8853,9.4613 C10.5193,6.3293 9.3013,2.4523 6.1723,0.8203" id="Fill-36" fill="#FDF1CE" mask="url(#mask-8)"></path>
                                    </g>
                                </g>
                                <g id="Group-163" transform="translate(0.000000, 79.679000)">
                                    <path d="M204.216,196.329 L394.059,196.329 L394.059,6.486 L204.216,6.486 L204.216,196.329 Z M197.774,202.772 L400.503,202.772 L400.503,0.043 L197.774,0.043 L197.774,202.772 Z" id="Fill-104" fill="#373736"></path>
                                    <polygon id="Fill-106" fill="#5D6872" points="397.281 199.551 420.236 199.551 420.236 3.265 397.281 3.265"></polygon>
                                    <path d="M400.503,196.329 L417.015,196.329 L417.015,6.486 L400.503,6.486 L400.503,196.329 Z M394.06,202.772 L423.458,202.772 L423.458,0.043 L394.06,0.043 L394.06,202.772 Z" id="Fill-107" fill="#373736"></path>
                                    <path d="M327.2682,105.9258 C327.2682,105.9258 278.9712,159.2938 305.0602,254.1558 C305.0602,254.1558 353.1552,186.9488 327.2682,105.9258" id="Fill-108" fill="#74D0BF"></path>
                                    <path d="M325.9704,112.8525 C321.7924,118.7185 314.8494,129.8985 309.3104,145.8525 C301.8894,167.2275 295.6174,201.5985 306.3244,246.1515 C310.5354,239.0405 317.3894,226.0995 322.8784,209.2105 C330.3214,186.3115 336.6374,151.4475 325.9704,112.8525 L325.9704,112.8525 Z M303.7454,261.5295 L301.9534,255.0105 C288.2564,205.2065 295.1474,166.8295 303.3394,143.4045 C312.2654,117.8825 324.3684,104.3285 324.8794,103.7635 L328.6344,99.6145 L330.3374,104.9455 C343.9714,147.6185 337.1004,186.4025 328.9354,211.4245 C320.0944,238.5145 308.1834,255.3295 307.6804,256.0315 L303.7454,261.5295 Z" id="Fill-109" fill="#373736"></path>
                                    <path d="M316.5817,168.3818 L303.9017,250.7278" id="Fill-110" fill="#74D0BF"></path>
                                    <path d="M303.9059,253.9502 C303.7429,253.9502 303.5779,253.9372 303.4119,253.9122 C301.6529,253.6412 300.4469,251.9962 300.7179,250.2372 L313.3969,167.8912 C313.6679,166.1332 315.3199,164.9312 317.0719,165.1972 C318.8309,165.4682 320.0369,167.1132 319.7659,168.8722 L307.0869,251.2182 C306.8419,252.8102 305.4689,253.9502 303.9059,253.9502" id="Fill-111" fill="#373736"></path>
                                    <path d="M375.8796,157.2285 C375.8796,157.2285 305.1786,175.6585 310.8606,254.7725 C310.8606,254.7725 367.3516,230.2525 375.8796,157.2285" id="Fill-112" fill="#74D0BF"></path>
                                    <path d="M371.9977,161.9131 C365.7547,164.2491 354.2197,169.4251 343.1377,178.9491 C322.7087,196.5071 312.8577,220.2651 313.8167,249.6271 C319.0277,246.6991 328.3797,240.7101 338.0907,230.9081 C350.8787,218.0001 366.8247,195.7321 371.9977,161.9131 L371.9977,161.9131 Z M307.9737,259.5381 L307.6467,255.0031 C304.6157,212.7941 323.1027,187.5921 339.1457,173.8831 C356.4757,159.0751 374.3157,154.3071 375.0667,154.1101 L379.6267,152.9221 L379.0797,157.6021 C374.5667,196.2401 356.6727,221.3761 342.4557,235.6581 C327.0097,251.1741 312.7437,257.4681 312.1437,257.7281 L307.9737,259.5381 Z" id="Fill-113" fill="#373736"></path>
                                    <path d="M346.1218,196.4453 L309.9868,251.2603" id="Fill-114" fill="#74D0BF"></path>
                                    <path d="M309.9841,254.4834 C309.3761,254.4834 308.7591,254.3104 308.2131,253.9514 C306.7281,252.9714 306.3171,250.9724 307.2961,249.4874 L343.4311,194.6714 C344.4111,193.1854 346.4101,192.7774 347.8951,193.7544 C349.3801,194.7344 349.7921,196.7334 348.8121,198.2184 L312.6771,253.0344 C312.0581,253.9734 311.0311,254.4834 309.9841,254.4834" id="Fill-115" fill="#373736"></path>
                                    <path d="M303.3727,254.1563 C303.3727,254.1563 257.7477,221.4263 273.3247,158.9693 C273.3247,158.9693 312.8517,192.6083 303.3727,254.1563" id="Fill-116" fill="#74D0BF"></path>
                                    <path d="M275.196,165.3779 C270.723,188.1609 274.059,209.2389 285.139,228.1049 C290.634,237.4599 296.885,244.1059 300.941,247.8759 C303.899,219.9429 296.345,198.5759 289.204,185.2649 C284.216,175.9689 278.77,169.2669 275.196,165.3779 L275.196,165.3779 Z M305.758,259.8329 L301.495,256.7739 C301.007,256.4239 289.426,248.0089 279.734,231.6249 C270.797,216.5169 261.887,191.5129 270.199,158.1909 L271.456,153.1489 L275.413,156.5159 C275.836,156.8749 285.857,165.5059 294.738,181.9509 C302.908,197.0779 311.59,221.9689 306.557,254.6469 L305.758,259.8329 Z" id="Fill-117" fill="#373736"></path>
                                    <path d="M285.9909,202.7041 L303.3729,254.1561" id="Fill-118" fill="#74D0BF"></path>
                                    <path d="M303.3727,257.3789 C302.0277,257.3789 300.7737,256.5309 300.3197,255.1879 L282.9377,203.7349 C282.3687,202.0499 283.2737,200.2209 284.9597,199.6509 C286.6477,199.0849 288.4747,199.9879 289.0437,201.6729 L306.4257,253.1249 C306.9947,254.8109 306.0897,256.6399 304.4037,257.2089 C304.0617,257.3239 303.7147,257.3789 303.3727,257.3789" id="Fill-119" fill="#373736"></path>
                                    <polygon id="Fill-120" fill="#FFFFFF" points="275.012 300.726 335.108 300.726 335.108 252.024 275.012 252.024"></polygon>
                                    <path d="M278.234,297.504 L331.886,297.504 L331.886,255.245 L278.234,255.245 L278.234,297.504 Z M271.791,303.947 L338.33,303.947 L338.33,248.801 L271.791,248.801 L271.791,303.947 Z" id="Fill-121" fill="#373736"></path>
                                    <polygon id="Fill-122" fill="#5D6872" points="359.9753 513.7783 371.3843 513.7783 356.7993 371.4853 336.3773 371.4853"></polygon>
                                    <path d="M362.7067,510.5566 L367.8147,510.5566 L353.8917,374.7066 L340.1787,374.7066 L362.7067,510.5566 Z M374.9537,516.9996 L357.2437,516.9996 L332.5767,368.2636 L359.7077,368.2636 L374.9537,516.9996 Z" id="Fill-123" fill="#373736"></path>
                                    <polygon id="Fill-124" fill="#5D6872" points="211.9684 513.7783 200.5594 513.7783 215.1444 371.4853 235.5664 371.4853"></polygon>
                                    <path d="M204.1286,510.5566 L209.2366,510.5566 L231.7656,374.7066 L218.0526,374.7066 L204.1286,510.5566 Z M214.6996,516.9996 L196.9896,516.9996 L212.2356,368.2636 L239.3666,368.2636 L214.6996,516.9996 Z" id="Fill-125" fill="#373736"></path>
                                    <path d="M427.946,314.5791 C427.946,306.9291 421.743,300.7251 414.092,300.7251 L157.851,300.7251 C150.201,300.7251 143.998,306.9291 143.998,314.5791 L143.998,357.6321 L143.998,357.6321 L143.998,357.6321 C143.998,365.2831 150.201,371.4851 157.851,371.4851 L414.092,371.4851 C421.743,371.4851 427.946,365.2831 427.946,357.6321 L427.946,357.6321 L427.946,357.6321 L427.946,314.5791 Z" id="Fill-126" fill="#5D6872"></path>
                                    <path d="M157.8513,303.9473 C151.9893,303.9473 147.2193,308.7173 147.2193,314.5793 L147.2193,357.6323 C147.2193,363.4943 151.9893,368.2633 157.8513,368.2633 L414.0923,368.2633 C419.9553,368.2633 424.7243,363.4943 424.7243,357.6323 L424.7243,314.5793 C424.7243,308.7173 419.9553,303.9473 414.0923,303.9473 L157.8513,303.9473 Z M414.0923,374.7073 L157.8513,374.7073 C148.4363,374.7073 140.7763,367.0473 140.7763,357.6323 L140.7763,314.5793 C140.7763,305.1643 148.4363,297.5043 157.8513,297.5043 L414.0923,297.5043 C423.5073,297.5043 431.1673,305.1643 431.1673,314.5793 L431.1673,357.6323 C431.1673,367.0473 423.5073,374.7073 414.0923,374.7073 L414.0923,374.7073 Z" id="Fill-127" fill="#373736"></path>
                                    <polygon id="Fill-128" fill="#FFDA6F" points="158.679 357.117 413.264 357.117 413.264 315.095 158.679 315.095"></polygon>
                                    <path d="M161.901,353.896 L410.043,353.896 L410.043,318.317 L161.901,318.317 L161.901,353.896 Z M155.458,360.339 L416.486,360.339 L416.486,311.873 L155.458,311.873 L155.458,360.339 Z" id="Fill-129" fill="#373736"></path>
                                    <path d="M294.9235,336.2119 C294.9235,331.2689 290.9155,327.2609 285.9725,327.2609 C281.0275,327.2609 277.0205,331.2689 277.0205,336.2119 C277.0205,341.1559 281.0275,345.1639 285.9725,345.1639 C290.9155,345.1639 294.9235,341.1559 294.9235,336.2119" id="Fill-130" fill="#74D0BF"></path>
                                    <path d="M285.9724,330.4824 C282.8134,330.4824 280.2424,333.0524 280.2424,336.2114 C280.2424,339.3714 282.8134,341.9424 285.9724,341.9424 C289.1314,341.9424 291.7014,339.3714 291.7014,336.2114 C291.7014,333.0524 289.1314,330.4824 285.9724,330.4824 M285.9724,348.3854 C279.2594,348.3854 273.7984,342.9244 273.7984,336.2114 C273.7984,329.5004 279.2594,324.0394 285.9724,324.0394 C292.6844,324.0394 298.1454,329.5004 298.1454,336.2114 C298.1454,342.9244 292.6844,348.3854 285.9724,348.3854" id="Fill-131" fill="#373736"></path>
                                    <path d="M82.1657,314.8477 L120.2847,209.8457 C124.3167,198.7397 116.0917,187.0007 104.2747,187.0007 L20.2817,187.0007 C8.4657,187.0007 0.2397,198.7397 4.2707,209.8457 L42.3917,314.8477" id="Fill-132" fill="#74D0BF"></path>
                                    <path d="M39.363,315.9473 L1.243,210.9453 C-1.042,204.6493 -0.149,197.8933 3.696,192.4083 C7.54,186.9253 13.585,183.7793 20.282,183.7793 L104.275,183.7793 C110.972,183.7793 117.018,186.9253 120.862,192.4093 C124.706,197.8933 125.599,204.6493 123.313,210.9453 L85.194,315.9473 L79.137,313.7483 L117.257,208.7463 C118.815,204.4543 118.206,199.8463 115.585,196.1073 C112.964,192.3683 108.842,190.2223 104.275,190.2223 L20.282,190.2223 C15.716,190.2223 11.593,192.3683 8.972,196.1073 C6.351,199.8463 5.742,204.4543 7.3,208.7463 L45.42,313.7483 L39.363,315.9473 Z" id="Fill-133" fill="#373736"></path>
                                    <path d="M45.3376,186.4111 L32.6556,209.8111" id="Fill-134" fill="#FFFFFF"></path>
                                    <path d="M32.653,213.0342 C32.134,213.0342 31.609,212.9092 31.121,212.6442 C29.556,211.7972 28.975,209.8412 29.823,208.2762 L42.505,184.8762 C43.353,183.3122 45.307,182.7292 46.873,183.5782 C48.437,184.4262 49.018,186.3822 48.171,187.9462 L35.489,211.3472 C34.905,212.4232 33.798,213.0342 32.653,213.0342" id="Fill-135" fill="#373736"></path>
                                    <path d="M79.2204,186.4111 L91.9004,209.8111" id="Fill-136" fill="#FFFFFF"></path>
                                    <path d="M91.903,213.0342 C90.758,213.0342 89.651,212.4232 89.067,211.3472 L76.387,187.9462 C75.54,186.3822 76.121,184.4262 77.685,183.5782 C79.251,182.7312 81.205,183.3112 82.053,184.8762 L94.733,208.2762 C95.581,209.8412 95,211.7972 93.435,212.6442 C92.947,212.9082 92.422,213.0342 91.903,213.0342" id="Fill-137" fill="#373736"></path>
                                    <path d="M45.1765,166.9883 L45.1765,184.0913 C45.1765,193.5363 52.8325,250.7273 62.2785,250.7273 C71.7235,250.7273 79.3805,193.5363 79.3805,184.0913 L79.3805,166.9883" id="Fill-138" fill="#FFFFFF"></path>
                                    <path d="M62.5339,247.5488 L62.5449,247.5488 L62.5339,247.5488 Z M62.2779,253.9488 C57.9359,253.9488 52.7279,250.1048 47.0259,221.5828 C43.8839,205.8678 41.9549,189.1548 41.9549,184.0908 L41.9549,166.9878 C41.9549,165.2088 43.3969,163.7668 45.1769,163.7668 C46.9559,163.7668 48.3979,165.2088 48.3979,166.9878 L48.3979,184.0908 C48.3979,188.4248 50.1869,203.9878 52.9899,218.5128 C57.4299,241.5238 61.2709,246.4218 62.2779,247.3498 C63.2849,246.4218 67.1259,241.5238 71.5669,218.5128 C74.3699,203.9878 76.1589,188.4238 76.1589,184.0908 L76.1589,166.9878 C76.1589,165.2088 77.6009,163.7668 79.3809,163.7668 C81.1599,163.7668 82.6019,165.2088 82.6019,166.9878 L82.6019,184.0908 C82.6019,189.1538 80.6739,205.8668 77.5309,221.5828 C71.8279,250.1048 66.6199,253.9488 62.2779,253.9488 L62.2779,253.9488 Z" id="Fill-139" fill="#373736"></path>
                                    <path d="M36.3855,84.6133 C36.3855,70.3133 47.9785,58.7203 62.2785,58.7203 C76.5785,58.7203 88.1715,70.3133 88.1715,84.6133 C88.1715,98.9143 76.5785,110.5073 62.2785,110.5073 C47.9785,110.5073 36.3855,98.9143 36.3855,84.6133" id="Fill-140" fill="#5D6872"></path>
                                    <path d="M62.278,61.9424 C49.777,61.9424 39.607,72.1124 39.607,84.6134 C39.607,97.1144 49.777,107.2854 62.278,107.2854 C74.779,107.2854 84.95,97.1144 84.95,84.6134 C84.95,72.1124 74.779,61.9424 62.278,61.9424 M62.278,113.7284 C46.224,113.7284 33.164,100.6684 33.164,84.6134 C33.164,68.5594 46.224,55.4994 62.278,55.4994 C78.333,55.4994 91.393,68.5594 91.393,84.6134 C91.393,100.6684 78.333,113.7284 62.278,113.7284" id="Fill-141" fill="#373736"></path>
                                    <path d="M62.278,80.3447 C45.259,80.3447 31.464,94.1407 31.464,111.1587 L31.464,141.9737 C31.464,158.9917 45.259,172.7877 62.278,172.7877 C79.297,172.7877 93.092,158.9917 93.092,141.9737 L93.092,111.1587 C93.092,94.1407 79.297,80.3447 62.278,80.3447" id="Fill-142" fill="#FFFFFF"></path>
                                    <path d="M62.278,83.5664 C47.063,83.5664 34.685,95.9444 34.685,111.1594 L34.685,141.9734 C34.685,157.1884 47.063,169.5664 62.278,169.5664 C77.493,169.5664 89.871,157.1884 89.871,141.9734 L89.871,111.1594 C89.871,95.9444 77.493,83.5664 62.278,83.5664 M62.278,176.0094 C43.51,176.0094 28.242,160.7414 28.242,141.9734 L28.242,111.1594 C28.242,92.3914 43.51,77.1234 62.278,77.1234 C81.046,77.1234 96.314,92.3914 96.314,111.1594 L96.314,141.9734 C96.314,160.7414 81.046,176.0094 62.278,176.0094" id="Fill-143" fill="#373736"></path>
                                    <path d="M86.9929,92.752 C81.3749,85.222 72.3959,80.345 62.2779,80.345 C45.2599,80.345 31.4639,94.141 31.4639,111.159 L31.4639,129.051 C56.2909,129.051 77.6199,114.119 86.9929,92.752" id="Fill-144" fill="#5D6872"></path>
                                    <path d="M62.278,83.5664 C47.063,83.5664 34.685,95.9444 34.685,111.1594 L34.685,125.7384 C55.537,124.5704 74.178,112.1214 83.238,93.2114 C77.984,87.0584 70.446,83.5664 62.278,83.5664 M31.464,132.2724 L28.242,132.2724 L28.242,111.1594 C28.242,92.3914 43.51,77.1234 62.278,77.1234 C72.969,77.1234 83.174,82.2454 89.575,90.8254 L90.697,92.3284 L89.943,94.0454 C79.757,117.2674 56.802,132.2724 31.464,132.2724" id="Fill-145" fill="#373736"></path>
                                    <polygon id="Fill-146" fill="#FFDA6F" points="130.678 314.848 160.543 314.848 160.543 264.093 130.678 264.093"></polygon>
                                    <path d="M133.9,311.626 L157.322,311.626 L157.322,267.314 L133.9,267.314 L133.9,311.626 Z M127.456,318.069 L163.765,318.069 L163.765,260.871 L127.456,260.871 L127.456,318.069 Z" id="Fill-147" fill="#373736"></path>
                                    <path d="M155.9284,255.8691 C155.8754,255.8691 155.8244,255.8681 155.7714,255.8661 C153.9934,255.7801 152.6214,254.2701 152.7064,252.4931 C153.0784,244.7281 156.6904,237.6321 163.1504,231.9701 C177.0774,219.7631 187.4614,207.7031 173.3984,183.6841 C172.4984,182.1491 173.0144,180.1761 174.5504,179.2761 C176.0854,178.3761 178.0594,178.8921 178.9584,180.4291 C195.4744,208.6351 182.3034,223.7511 167.3984,236.8151 C162.2114,241.3611 159.4344,246.7401 159.1444,252.8021 C159.0614,254.5261 157.6364,255.8691 155.9284,255.8691" id="Fill-148" fill="#373736"></path>
                                    <path d="M167.2975,209.8398 C166.6985,209.8398 166.0935,209.6718 165.5535,209.3218 C165.3565,209.1938 145.9755,196.2868 155.8985,172.7208 C165.3955,150.1678 157.9155,140.6818 149.3475,134.3778 C147.9135,133.3228 147.6075,131.3058 148.6605,129.8728 C149.7155,128.4408 151.7325,128.1318 153.1655,129.1868 C172.3645,143.3138 167.3105,162.2248 161.8375,175.2208 C154.0415,193.7348 168.4505,203.5138 169.0685,203.9218 C170.5495,204.8988 170.9675,206.8928 169.9965,208.3778 C169.3775,209.3238 168.3485,209.8398 167.2975,209.8398" id="Fill-149" fill="#373736"></path>
                                    <path d="M143.1706,292.0234 L130.6836,292.0234 L130.6836,279.1764 C130.6836,277.4914 129.5276,275.9624 127.8696,275.6614 C126.2256,275.3624 124.6506,276.2654 124.0476,277.7604 L121.9996,282.8494 C120.6806,286.1254 118.1246,288.7504 114.8846,290.1544 C112.0386,291.3874 108.9716,292.0234 105.8696,292.0234 L40.4696,292.0234 C36.6606,292.0234 33.2706,289.6084 32.0256,286.0084 L3.3026,205.5184 L12.1776,298.5994 C13.0356,307.8074 20.7636,314.8474 30.0116,314.8474 L110.5706,314.8474 L134.3856,314.8474 C138.4636,314.8474 142.2976,312.9004 144.7016,309.6064 C146.2996,307.4194 147.1606,304.7814 147.1606,302.0734 L147.1606,296.0134 C147.1606,293.8104 145.3736,292.0234 143.1706,292.0234" id="Fill-150" fill="#FFFFFF"></path>
                                    <path d="M8.9665,230.9766 L15.3845,298.2936 C16.0935,305.8976 22.3815,311.6256 30.0115,311.6256 L134.3855,311.6256 C137.4245,311.6256 140.3085,310.1616 142.0995,307.7066 C143.3035,306.0596 143.9395,304.1126 143.9395,302.0736 L143.9395,296.0136 C143.9395,295.5896 143.5945,295.2456 143.1705,295.2456 L130.6835,295.2456 C128.9045,295.2456 127.4615,293.8026 127.4615,292.0236 L127.4615,279.1766 C127.4615,278.9736 127.3345,278.8386 127.2925,278.8306 C127.1515,278.8106 127.0675,278.8876 127.0355,278.9646 L124.9885,284.0526 C123.3415,288.1416 120.2075,291.3586 116.1655,293.1106 C112.8975,294.5276 109.4335,295.2456 105.8695,295.2456 L40.4695,295.2456 C35.2895,295.2456 30.6725,291.9556 28.9815,287.0616 L8.9665,230.9766 Z M134.3855,318.0696 L30.0115,318.0696 C19.0335,318.0696 9.9875,309.8286 8.9695,298.8986 L0.0955,205.8246 C-0.0585,204.2056 1.0165,202.7266 2.6025,202.3726 C4.1875,202.0206 5.7905,202.9046 6.3365,204.4356 L35.0605,284.9256 C35.8655,287.2556 38.0355,288.8016 40.4695,288.8016 L105.8695,288.8016 C108.5465,288.8016 111.1485,288.2616 113.6035,287.1986 C116.0805,286.1236 118.0015,284.1526 119.0115,281.6456 L121.0585,276.5576 C122.2375,273.6376 125.3335,271.9246 128.4455,272.4916 C131.6105,273.0666 133.9045,275.8786 133.9045,279.1766 L133.9045,288.8016 L143.1705,288.8016 C147.1475,288.8016 150.3825,292.0376 150.3825,296.0136 L150.3825,302.0736 C150.3825,305.4886 149.3185,308.7496 147.3035,311.5076 C144.3045,315.6166 139.4755,318.0696 134.3855,318.0696 L134.3855,318.0696 Z" id="Fill-151" fill="#373736"></path>
                                    <polygon id="Fill-152" fill="#FFFFFF" points="64.5603 370.5928 64.5603 370.5928 135.7933 357.6318 82.3423 367.3578"></polygon>
                                    <polygon id="Fill-153" fill="#373736" points="65.1374 373.7627 63.9834 367.4227 135.2164 354.4617 136.3704 360.8017"></polygon>
                                    <polygon id="Fill-154" fill="#FFFFFF" points="167.0681 431.8789 126.9711 431.8789 117.2411 513.7779 134.9921 513.7779"></polygon>
                                    <path d="M120.8689,510.5566 L132.7939,510.5566 L162.3459,435.1006 L129.8339,435.1006 L120.8689,510.5566 Z M137.1899,516.9996 L113.6129,516.9996 L124.1089,428.6576 L171.7909,428.6576 L137.1899,516.9996 Z" id="Fill-155" fill="#373736"></path>
                                    <path d="M183.9304,315.0947 C183.4394,315.0597 182.9434,315.0367 182.4404,315.0357 L143.0564,314.9607 L142.9324,315.0947 L183.9304,315.0947 Z" id="Fill-156" fill="#FFFFFF"></path>
                                    <path d="M183.9304,318.3164 L135.5524,318.3164 L141.6524,311.7364 L182.4464,311.8144 C183.0254,311.8154 183.5954,311.8404 184.1604,311.8804 L183.9304,318.3164 Z" id="Fill-157" fill="#373736"></path>
                                    <polygon id="Fill-158" fill="#5D6872" points="143.1618 314.8477 83.7778 314.8477 143.0568 314.9607"></polygon>
                                    <polygon id="Fill-159" fill="#373736" points="144.4567 318.1855 83.7717 318.0695 83.7777 311.6255 150.5637 311.6255"></polygon>
                                    <path d="M183.9304,315.0947 L142.9324,315.0947 L143.0564,314.9607 L83.7784,314.8477 L30.0114,314.8477 L12.3544,342.3637 C1.9354,358.5997 15.8984,379.4477 34.8784,375.9937 L64.5604,370.5927 L82.3424,367.3577 L124.3704,359.7097 C129.1284,358.8447 132.8614,363.7387 130.7684,368.0977 L100.1404,431.8787 L126.9714,431.8787 L167.0684,431.8787 L201.7334,343.3707 C206.8774,330.2377 197.7184,316.0787 183.9304,315.0947" id="Fill-160" fill="#EDB2A4"></path>
                                    <path d="M105.2614,428.6572 L164.8694,428.6572 L198.7334,342.1962 C200.7884,336.9482 200.2444,331.2082 197.2404,326.4492 C194.2454,321.7062 189.3564,318.7462 183.8104,318.3162 L135.5524,318.3162 L135.6894,318.1692 L83.7724,318.0692 L31.7724,318.0692 L15.0664,344.1032 C10.9494,350.5172 11.0274,358.4362 15.2684,364.7682 C19.5104,371.1022 26.8094,374.1882 34.3014,372.8242 L123.7934,356.5402 C127.1924,355.9252 130.6064,357.2442 132.7004,359.9912 C134.7954,362.7372 135.1674,366.3782 133.6724,369.4922 L105.2614,428.6572 Z M169.2664,435.1002 L95.0194,435.1002 L127.8644,366.7032 C128.5094,365.3582 127.8774,364.2942 127.5764,363.8982 C127.2764,363.5042 126.4224,362.6122 124.9474,362.8802 L35.4554,379.1642 C25.3854,380.9972 15.6054,376.8522 9.9144,368.3542 C4.2234,359.8572 4.1184,349.2302 9.6424,340.6232 L28.2504,311.6262 L83.7784,311.6262 L150.4234,311.7532 L150.3124,311.8732 L184.1594,311.8812 C191.8164,312.4282 198.5704,316.4832 202.6894,323.0092 C206.7994,329.5192 207.5444,337.3702 204.7334,344.5462 L169.2664,435.1002 Z" id="Fill-161" fill="#373736"></path>
                                    <path d="M128.8952,514.6279 L122.6802,512.9289 L170.6702,337.4309 C171.9242,332.8439 170.9892,328.0449 168.1042,324.2649 C165.2182,320.4839 160.8362,318.3159 156.0812,318.3159 L143.1622,318.3159 L143.1622,311.8729 L156.0812,311.8729 C162.8632,311.8729 169.1122,314.9649 173.2262,320.3559 C177.3402,325.7459 178.6742,332.5889 176.8852,339.1299 L128.8952,514.6279 Z" id="Fill-162" fill="#373736"></path>
                                </g>
                            </g>
                        </g>
                    </g>
                </g>
            </g>
        </g>
    </g>
</svg>